<svg xmlns="http://www.w3.org/2000/svg" viewBox="0 0 196 80">
<path class="cls-1" d="M154.9,40.2l.7-1.4c1.4-3-.3-18.1-4.6-22-4.3-3.7-9.7-5.7-15.4-5.7-3,0-6,.5-8.8,1.7s-5.4,2.8-7.5,4.9c-3.5,3.6-5.2,17.9-3.6,21.1l9.3,14.1-9.7,15.5,13.7,11,6.7-10.1,7,10.6,13.3-11.6-9.8-15,8.7-13.1ZM151.7,36.9l-.5,1-7.6,11.4-5.5-8.5,11.7-17.6c1.6,4.5,2.4,12,1.9,13.7h0ZM131.1,30c2.9-.7,6-.7,8.9,0l-4.5,6.8-4.4-6.8ZM135.6,15.5c4.1,0,8.2,1.3,11.5,3.8l-4.6,6.9c-4.6-1.4-9.4-1.3-13.9,0l-4.5-6.9c3.3-2.5,7.3-3.8,11.5-3.8ZM128,73l-7-5.5,6.5-10.5,5.5,8.4-5.1,7.7ZM150.3,67.5l-6.7,5.9-23.5-35.8-.5-.8c-.3-4.7.3-9.4,1.7-13.9l29,44.6Z" fill="#fff"/>
</svg>