<svg width="56" height="56" viewBox="0 0 56 56" xmlns="http://www.w3.org/2000/svg">
  <path d="m42.708,9.4301c.6221.0233,1.2424-.0821,1.8218-.3096.5795-.2275,1.1059-.5721,1.5462-1.0123.4403-.4402.7849-.9666,1.0123-1.5461.2275-.5795.3328-1.1998.3096-1.8219.03-.626-.0705-1.2514-.2949-1.8366-.2244-.5852-.568-1.1173-1.009-1.5627-.441-.4454-.9696-.7943-1.5526-1.0246-.5828-.2303-1.2073-.337-1.8335-.3133-.6302-.0305-1.2598.0712-1.8483.2985-.5886.2273-1.123.5752-1.5693,1.0213-.4461.4461-.794.9806-1.0213,1.5692-.2272.5885-.329,1.2181-.2984,1.8483-.0237.6263.0829,1.2507.3133,1.8336.2303.5829.5792,1.1116,1.0246,1.5525.4454.4409.9776.7845,1.5627,1.009.5851.2244,1.2105.3249,1.8366.2949Zm0-7.6223c1.5727,0,2.5961,1.1512,2.5961,2.9182s-1.0328,2.9182-2.5961,2.9182-2.6055-1.1512-2.6055-2.904,1.0232-2.9324,2.6055-2.9324Zm-18.8023,5.7463h3.8704l.72,1.6817h2.1887L26.5586.2019h-1.3785l-4.1499,9.034h2.1602l.7153-1.6817Zm3.2167-1.5586l-1.2626-2.9694-1.2624,2.9694h2.525Zm-12.3786,1.8949l-2.2881-3.553v4.8984h-2.075V.1971h1.4591l3.4345,5.3626L18.7136.1971h1.4591v9.0387h-2.075v-4.8984l-2.2881,3.553h-1.0659Zm17.798,1.3454h2.1033v-3.2119L38.1271.1971h-2.2881l-2.2313,3.9462L31.3765.1971h-2.3165l3.4819,5.8269v3.2119Zm-16.6137,12.7243v-9.0387h2.1081v7.2954h4.6v1.7433h-6.708Zm10.3747-9.0387h-2.1033v9.034h2.1033v-9.034Zm-13.397,5.9927l1.8523.7296c-.7059,1.587-2.3023,2.5107-4.2541,2.5249-3.065,0-5.1542-2.3686-4.6804-5.5852.1853-.9447.651-1.8115,1.3364-2.4876.6853-.676,1.5585-1.1298,2.5056-1.3022,2.3118-.3126,4.2731.668,5.0499,2.5012l-1.8523.7296c-.1918-.4639-.5224-.8573-.9464-1.1261-.424-.2689-.9207-.4-1.4222-.3756-1.5917,0-2.6244,1.1654-2.6244,2.9324s1.0232,2.9181,2.6244,2.9181c.5009.0209.9968-.1064,1.4257-.3658.4289-.2596.7717-.6399.9856-1.0932Zm27.822-5.9927h-2.1033v9.034h2.1033v-9.034Zm7.5591,7.0599c.4256-.2523.7686-.6232.987-1.0672l1.8523.7437c-.7153,1.587-2.3118,2.5108-4.2635,2.5108-3.065,0-5.1542-2.3686-4.6805-5.5852.1854-.9447.6511-1.8115,1.3364-2.4876.6854-.676,1.5585-1.1298,2.5055-1.3022,2.326-.3128,4.2873.668,5.0452,2.4775l-1.8523.7296c-.1919-.4639-.5224-.8573-.9464-1.1261-.424-.2689-.9208-.4-1.4223-.3756-1.5727,0-2.5961,1.1512-2.5961,2.9181s1.0233,2.9181,2.6245,2.9181c.4944.0215.9843-.1016,1.41-.3539Zm-18.559-7.0599h-1.4023v9.0387h2.075v-5.5142l4.7989,5.5142h1.4023v-9.0387h-2.075v5.5142l-4.7989-5.5142Zm1.5491,21.1141v-5.7843h15.6378v8.8256c0,5.3105-2.5677,8.7166-7.8307,10.3794-.635-.1976-1.2567-.435-1.8618-.7107v.1705c-.7769,4.5289-3.6003,7.5276-8.565,9.0814-4.96-1.5539-7.788-4.5525-8.565-9.0814,0,0-.0237-.0616-.0237-.1705-.6051.2757-1.227.5131-1.8618.7107-5.2632-1.6628-7.8307-5.0737-7.8307-10.3794v-8.8302h15.6614v5.7889h5.2395Zm-13.0855,11.5575c-4.2523-1.7053-5.9632-4.2298-5.9632-8.862v-5.718c0-.24.0954-.4701.265-.6397.1697-.1697.3999-.265.6399-.265h10.152c.24,0,.4701.0953.6399.265.1696.1696.265.3998.265.6397v3.0224h-4.3157v10.7679c-.5438.2984-1.1059.5622-1.6829.7896Zm5.9938-8.8573v-.8432h-1.5444c-.24,0-.4701.0953-.6397.265-.1697.1696-.265.3998-.265.6397v6.7081c1.7148-1.587,2.4492-3.7235,2.4492-6.7696Zm4.472,17.4096c4.2304-1.6817,6.3243-4.0978,6.798-8.1339,0,0,.0094-.0901.0285-.251-2.8188-1.9092-4.2067-4.78-4.2067-8.6787v-1.1844h-5.2347v1.1844c0,3.8987-1.3644,6.7838-4.2067,8.6787.0283.161.0283.251.0283.251.4737,4.0362,2.5629,6.4522,6.7933,8.1339Zm4.4957-17.4096c0,3.0461.7342,5.1827,2.4492,6.7696v-6.7081c0-.1188-.0234-.2365-.0688-.3462-.0455-.1098-.1122-.2095-.1962-.2935-.084-.0841-.1837-.1507-.2935-.1962-.1098-.0455-.2275-.0688-.3462-.0688h-1.5444v.8432Zm5.9452,8.8683c4.2731-1.7055,5.9785-4.2304,5.9785-8.8683v-5.7131c0-.2384-.094-.4671-.2617-.6365-.1676-.1695-.3953-.2659-.6337-.2684h-10.1425c-.24,0-.4701.0953-.6399.265-.1696.1697-.2649.3998-.2649.6399v3.0223h4.2778v10.7679c.5449.299,1.1081.5632,1.6864.7912Z" fill-rule="evenodd" fill="black"/>
</svg>